<svg width="26" height="26" viewBox="0 0 26 26" fill="none" xmlns="http://www.w3.org/2000/svg">
<g id="icon/instagram">
<path id="vector" fill-rule="evenodd" clip-rule="evenodd" d="M13 3.25C10.3519 3.25 10.0204 3.26105 8.9804 3.3085C7.94235 3.35595 7.2332 3.52105 6.6131 3.7622C5.9631 4.0066 5.37355 4.3901 4.88605 4.8867C4.39024 5.37364 4.00651 5.96277 3.76155 6.6131C3.5217 7.2332 3.35595 7.943 3.3085 8.98105C3.2617 10.0204 3.25 10.3512 3.25 13C3.25 15.6487 3.26105 15.9796 3.3085 17.0196C3.35595 18.0576 3.52105 18.7668 3.7622 19.3869C4.0066 20.0369 4.3901 20.6264 4.8867 21.1139C5.37365 21.6097 5.96278 21.9935 6.6131 22.2384C7.2332 22.4789 7.94235 22.644 8.9804 22.6915C10.0204 22.7389 10.3519 22.75 13 22.75C15.6481 22.75 15.9796 22.7389 17.0196 22.6915C18.0576 22.644 18.7668 22.4789 19.3869 22.2378C20.0369 21.9934 20.6264 21.6099 21.1139 21.1133C21.6098 20.6264 21.9935 20.0372 22.2384 19.3869C22.4789 18.7668 22.644 18.0576 22.6915 17.0196C22.7389 15.9796 22.75 15.6481 22.75 13C22.75 10.3519 22.7389 10.0204 22.6915 8.9804C22.644 7.94235 22.4789 7.2332 22.2378 6.6131C21.993 5.96249 21.6093 5.37311 21.1133 4.88605C20.6264 4.39024 20.0372 4.00651 19.3869 3.76155C18.7668 3.5217 18.057 3.35595 17.0189 3.3085C15.9796 3.2617 15.6487 3.25 13 3.25ZM13 5.00695C15.6032 5.00695 15.912 5.0167 16.9403 5.0635C17.8906 5.10705 18.4067 5.265 18.7505 5.39955C19.2055 5.5757 19.5306 5.7876 19.8718 6.1282C20.213 6.46945 20.4243 6.79445 20.6005 7.24945C20.7344 7.5933 20.8929 8.1094 20.9365 9.0597C20.9833 10.088 20.993 10.3967 20.993 13C20.993 15.6032 20.9833 15.912 20.9365 16.9403C20.8929 17.8906 20.735 18.4067 20.6005 18.7505C20.4444 19.1741 20.1954 19.5572 19.8718 19.8718C19.5573 20.1955 19.1741 20.4445 18.7505 20.6005C18.4067 20.7344 17.8906 20.8929 16.9403 20.9365C15.912 20.9833 15.6039 20.993 13 20.993C10.3961 20.993 10.088 20.9833 9.0597 20.9365C8.1094 20.8929 7.5933 20.735 7.24945 20.6005C6.82595 20.4444 6.4428 20.1954 6.1282 19.8718C5.80461 19.5572 5.55563 19.174 5.39955 18.7505C5.26565 18.4067 5.10705 17.8906 5.0635 16.9403C5.0167 15.912 5.00695 15.6032 5.00695 13C5.00695 10.3967 5.0167 10.088 5.0635 9.0597C5.10705 8.1094 5.265 7.5933 5.39955 7.24945C5.5757 6.79445 5.7876 6.46945 6.1282 6.1282C6.44276 5.80453 6.82592 5.55553 7.24945 5.39955C7.5933 5.26565 8.1094 5.10705 9.0597 5.0635C10.088 5.0167 10.3967 5.00695 13 5.00695Z" fill="white"/>
<path id="vector_2" fill-rule="evenodd" clip-rule="evenodd" d="M13 16.2533C12.5728 16.2533 12.1498 16.1691 11.7551 16.0056C11.3604 15.8421 11.0017 15.6025 10.6996 15.3004C10.3975 14.9983 10.1579 14.6397 9.99441 14.245C9.83092 13.8503 9.74677 13.4272 9.74677 13C9.74677 12.5728 9.83092 12.1497 9.99441 11.755C10.1579 11.3603 10.3975 11.0017 10.6996 10.6996C11.0017 10.3975 11.3604 10.1579 11.7551 9.99439C12.1498 9.8309 12.5728 9.74675 13 9.74675C13.8628 9.74675 14.6903 10.0895 15.3004 10.6996C15.9105 11.3097 16.2533 12.1372 16.2533 13C16.2533 13.8628 15.9105 14.6903 15.3004 15.3004C14.6903 15.9105 13.8628 16.2533 13 16.2533ZM13 7.9885C11.6709 7.9885 10.3962 8.5165 9.45636 9.45633C8.51652 10.3962 7.98853 11.6709 7.98853 13C7.98853 14.3291 8.51652 15.6038 9.45636 16.5437C10.3962 17.4835 11.6709 18.0115 13 18.0115C14.3292 18.0115 15.6038 17.4835 16.5437 16.5437C17.4835 15.6038 18.0115 14.3291 18.0115 13C18.0115 11.6709 17.4835 10.3962 16.5437 9.45633C15.6038 8.5165 14.3292 7.9885 13 7.9885ZM19.4695 7.8975C19.4695 8.21168 19.3447 8.513 19.1225 8.73516C18.9003 8.95732 18.599 9.08213 18.2848 9.08213C17.9707 9.08213 17.6694 8.95732 17.4472 8.73516C17.225 8.513 17.1002 8.21168 17.1002 7.8975C17.1002 7.58332 17.225 7.282 17.4472 7.05984C17.6694 6.83768 17.9707 6.71288 18.2848 6.71288C18.599 6.71288 18.9003 6.83768 19.1225 7.05984C19.3447 7.282 19.4695 7.58332 19.4695 7.8975Z" fill="white"/>
</g>
</svg>
