<svg width="25" height="25" viewBox="0 0 25 25" fill="none" xmlns="http://www.w3.org/2000/svg">
<g id="mingcute:phone-line" clip-path="url(#clip0_1_52)">
<g id="Group">
<path id="Vector" fill-rule="evenodd" clip-rule="evenodd" d="M8.51252 16.4885C12.5177 20.4937 16.2292 20.9323 17.3188 20.9729C18.6354 21.0208 19.9792 19.9458 20.5604 18.8448C19.6334 17.7573 18.4261 16.9135 17.1031 15.999C16.324 16.7781 15.3636 18.226 14.0823 17.7073C13.3542 17.4146 11.5563 16.5865 9.98544 15.0146C8.41356 13.4437 7.58648 11.6458 7.29169 10.9187C6.77294 9.63646 8.22502 8.67291 9.00523 7.8927C8.09065 6.54895 7.26148 5.31041 6.17606 4.4302C5.0594 5.01354 3.97814 6.34687 4.0271 7.68125C4.06773 8.77083 4.50627 12.4823 8.51252 16.4885ZM17.2417 23.0542C15.7417 22.999 11.4906 22.4125 7.03856 17.9604C2.58752 13.5094 2.00106 9.25937 1.94481 7.75833C1.86148 5.47083 3.61356 3.24895 5.63752 2.38125C5.88125 2.276 6.14815 2.23593 6.41203 2.26497C6.67592 2.29401 6.92772 2.39115 7.14273 2.54687C8.81773 3.76875 9.97294 5.61979 10.9656 7.06979C11.1722 7.3713 11.2668 7.73552 11.2331 8.09942C11.1994 8.46332 11.0396 8.80399 10.7813 9.0625L9.36877 10.476C9.6969 11.2 10.3646 12.4479 11.4584 13.5417C12.5521 14.6354 13.8 15.3031 14.525 15.6312L15.9365 14.2187C16.196 13.9599 16.5381 13.8003 16.9032 13.7677C17.2683 13.7352 17.6332 13.8317 17.9344 14.0406C19.4136 15.0656 21.1511 16.2042 22.4177 17.826C22.5861 18.0426 22.6932 18.3004 22.7278 18.5725C22.7625 18.8447 22.7234 19.1211 22.6146 19.3729C21.7427 21.4073 19.5365 23.1385 17.2417 23.0542Z" fill="white"/>
</g>
</g>
<defs>
<clipPath id="clip0_1_52">
<rect width="25" height="25" fill="white"/>
</clipPath>
</defs>
</svg>
