<svg width="24" height="24" viewBox="0 0 24 24" fill="none" xmlns="http://www.w3.org/2000/svg">
<g id="Frame 20">
<path id="Vector" d="M19.6638 5C20.2338 5 20.6638 5.5 20.4338 6.43L17.6438 19.58C17.4488 20.515 16.8838 20.74 16.1038 20.305L9.44882 15.39C9.42302 15.3715 9.40199 15.3471 9.38749 15.3188C9.37298 15.2906 9.36542 15.2593 9.36542 15.2275C9.36542 15.1957 9.37298 15.1644 9.38749 15.1362C9.40199 15.1079 9.42302 15.0835 9.44882 15.065L17.1338 8.125C17.4838 7.815 17.0588 7.665 16.5988 7.945L6.95382 14.03C6.92457 14.0491 6.89136 14.0612 6.85671 14.0656C6.82206 14.0699 6.78687 14.0663 6.75382 14.055L2.65882 12.76C1.74882 12.495 1.74882 11.87 2.86382 11.425L19.2488 5.105C19.3788 5.04266 19.5199 5.00696 19.6638 5Z" stroke="white" stroke-width="1.5" stroke-linecap="round" stroke-linejoin="round"/>
</g>
</svg>
