<svg width="28" height="28" viewBox="0 0 28 28" fill="none" xmlns="http://www.w3.org/2000/svg">
<g id="icon/whatsapp">
<path id="vector" d="M14.044 3.83871C8.28055 3.83871 3.5901 8.35642 3.58806 13.9085C3.58671 15.6841 4.06903 17.4169 4.98355 18.9431L3.5 24.1613L9.04332 22.7611C10.5853 23.5676 12.2998 23.9884 14.04 23.9872H14.044C19.8075 23.9872 24.498 19.4688 24.5 13.9167C24.5014 11.2273 23.4148 8.6958 21.4401 6.79293C19.4661 4.88938 16.8411 3.83938 14.044 3.83871ZM14.044 22.2862H14.0406C12.4812 22.2862 10.9516 21.8825 9.6171 21.1197L9.29871 20.9381L6.01052 21.7686L6.88845 18.6796L6.68184 18.3633C5.814 17.0397 5.35202 15.4913 5.35274 13.9085C5.35477 9.29329 9.254 5.53971 14.0474 5.53971C16.3683 5.54038 18.5502 6.41222 20.1916 7.994C21.833 9.57577 22.736 11.6792 22.7346 13.916C22.7326 18.5313 18.8341 22.2862 14.0434 22.2862H14.044ZM18.811 16.0167C18.5495 15.8914 17.2652 15.2824 17.0254 15.1977C16.7862 15.1144 16.6121 15.071 16.438 15.323C16.2646 15.575 15.7633 16.142 15.6116 16.3093C15.4585 16.4773 15.3061 16.4976 15.0446 16.3723C14.7831 16.2463 13.9411 15.9808 12.9439 15.1232C12.1669 14.4566 11.6426 13.6328 11.4902 13.3802C11.3377 13.1288 11.4739 12.9927 11.6046 12.8674C11.7218 12.7556 11.8661 12.574 11.9962 12.427C12.1263 12.28 12.1696 12.175 12.2577 12.007C12.3444 11.8397 12.301 11.692 12.2353 11.5667C12.1696 11.44 11.648 10.2017 11.4292 9.69838C11.2178 9.20793 11.0024 9.27364 10.8419 9.26551C10.6895 9.25874 10.516 9.25671 10.3406 9.25671C10.1678 9.25671 9.884 9.31971 9.64419 9.57171C9.40506 9.82371 8.72968 10.432 8.72968 11.6704C8.72968 12.9094 9.66587 14.1057 9.79661 14.2737C9.92735 14.441 11.6392 16.9834 14.2601 18.074C14.8834 18.3321 15.3697 18.4872 15.7498 18.6037C16.3757 18.7954 16.9454 18.7677 17.3952 18.7033C17.8965 18.6308 18.9411 18.095 19.1579 17.5077C19.376 16.9204 19.376 16.4164 19.311 16.3114C19.2473 16.2064 19.0725 16.1434 18.811 16.0167Z" fill="white"/>
</g>
</svg>
